<?xml version="1.0" encoding="utf-8"?>
<!-- Generator: Adobe Illustrator 19.0.0, SVG Export Plug-In . SVG Version: 6.00 Build 0)  -->
<svg version="1.1" id="Capa_1" xmlns="http://www.w3.org/2000/svg" xmlns:xlink="http://www.w3.org/1999/xlink" x="0px" y="0px"
	 viewBox="135.4 420.9 171.6 106.9" style="enable-background:new 135.4 420.9 171.6 106.9;" xml:space="preserve">
<style type="text/css">
	.st0{fill:#FFFFFF;}
</style>
<g id="XMLID_26_">
	<path id="XMLID_28_" class="st0" d="M252.3,509c-1.2,4.1-2,8.2-3.9,12c-20.3-0.1-40.5-0.2-60.8-0.2c-2.5-4.3-3.2-9.1-4.7-13.7
		c-0.5-1.5-4.2-0.4-3.7,1c1,2.9,1.6,5.9,2.6,8.8c0.6,1.7,1.6,5.4,3.3,6.2c1.2,0.5,3.6,0.1,5,0.1c1.8,0,3.7,0,5.5,0
		c3.5,0,7.1,0,10.6,0c14.3,0.1,28.5,0.1,42.8,0.2c0.9,0,2-0.3,2.4-1.1c2.5-4.2,3.3-9,4.8-13.6C256.5,507.1,252.7,507.6,252.3,509z"
		/>
	<path id="XMLID_42_" class="st0" d="M169.3,478.8c0.6,1.4,4.3,0.3,3.7-1c-1.8-4.2-3.3-8.5-4.5-12.9c15.3-12.9,31.5-25.4,49-35.3
		c10.8,5.8,20.9,12.9,30.6,20.4c4.8,3.7,9.6,7.6,14.2,11.6c1,0.8,2,1.7,2.9,2.6c1.4,1.2,2,1.5,1.6,3.3c-0.8,3.9-2.3,7.9-3.8,11.6
		c-0.7,1.8,3,1.5,3.5,0.2c1.8-4.6,3.2-9.3,4.5-14.1c0-0.2,0-0.4-0.2-0.6c-12.7-11.4-26.3-22.1-40.8-31.2c-1.7-1.1-3.5-2.2-5.3-3.2
		c-1.7-1-3.7-2.6-5.7-3.1c-1.4-0.4-2.6,0.4-3.8,1.1c-2,1.1-4,2.3-5.9,3.5c-7.8,4.8-15.3,10.1-22.7,15.5
		c-7.4,5.5-14.6,11.3-21.7,17.2c-0.2,0.2-0.4,0.6-0.3,0.9C165.9,470,167.4,474.4,169.3,478.8z"/>
	<ellipse id="XMLID_43_" class="st0" cx="222.2" cy="480.6" rx="2.6" ry="2.4"/>
	<path id="XMLID_46_" class="st0" d="M299.5,490.8c-1-0.1-1.9,0.5-2,1.5c-0.2,1.3-1.6,2.5-3.2,2.8c-1.4,0.2-3-0.1-4.6-0.9
		c0.1-1.5-0.3-3.1-1-4.7c-0.8-1.7-1.9-3.1-3-4.4c-0.2-0.3-0.4-0.6-0.6-0.8c-2.6-3.3-4.7-7-6.3-10.8c-0.3-0.7-1.1-1.2-1.8-1.1
		c-0.8,0.1-1.4,0.7-1.6,1.4c-0.9,4.9-2.9,9.6-5.8,13.7c-2.2,3.2-4.6,5.2-7.1,6.3c-2.9,1.2-6.2,0.8-8.1-0.9c-0.1-0.1-0.1-0.1-0.2-0.2
		c0.1-0.2,0.2-0.4,0.3-0.6c1.4-2.9,2.6-5.7,3.1-9.2c0,0,0.5-4.9-2.2-6.5c-1.2-0.7-2.6-0.7-3.9,0c-2.1,1.2-3.3,3.9-3.4,5.9
		c-0.1,3.7,0,7.7,1.9,11c-0.1,0.2-0.2,0.4-0.3,0.6c-1.8,4.3-4.6,7.4-8,8.9c-0.9,0.4-2.1,0.7-3.1,0.4c-0.8-0.3-1.5-1.2-2.1-2.2
		c-1.3-1.9-2.3-4-3.1-6.1c2.5-2.8,4.4-6.6,5.8-11.3c1.5-5.5,2.1-11.1,1.8-16.7c-0.1-1-0.2-2.9-1.6-4.2c-1.5-1.4-4.1-1.4-6-0.1
		c-1.4,1.1-2.2,2.6-2.9,4c-3.7,8.6-4,18.5-1.2,27.3c-0.6,0.5-1.3,1-2,1.4c-0.9,0.5-1.4,0.5-1.5,0.4s-0.3-0.7-0.4-1l-2.1-7
		c-0.2-0.8-1-1.3-1.9-1.3c-0.8,0.1-1.5,0.7-1.6,1.6c-0.5,4.5-2.7,8.8-6,11.9l-3.1-13.1c-0.3-1.1-0.6-2.6-1.7-3.8
		c-1.3-1.4-3.6-2.1-5.4-0.8c-0.8,0.6-1.2,1.5-1.5,2.2c-0.7,1.9-1.3,3.7-1.8,5.7c-0.1-0.4-0.3-0.8-0.4-1.2c-1-2.7-2.8-4.1-4.9-3.8
		c-2.1,0.4-3,2.4-3.3,3c-0.1,0.3-0.2,0.5-0.3,0.8l-0.6-3.2c-0.1-0.8-0.8-1.4-1.6-1.5s-1.6,0.5-1.8,1.2c-1.5,4.7-6.2,8.2-11.2,8.4
		c-1.8,0.1-3.6-0.3-5.6-0.6c-0.7-0.1-1.3-0.2-2-0.3c-1.8-6-5.9-10.2-9.8-14.2c-2.4-2.5-4.7-4.8-6.4-7.5c-0.4-0.7-1.3-1-2-0.7
		c-0.8,0.2-1.3,1-1.2,1.8c0.4,10.4-4.6,20.8-13.1,27c-0.8,0.6-1,1.7-0.4,2.5s1.7,1,2.5,0.4c8.1-5.9,13.3-15.1,14.4-24.9
		c1.2,1.4,2.5,2.7,3.7,4c3.4,3.6,6.7,7,8.5,11.4c-3.5,0.1-7.7,1.4-9.4,5.1c-0.9,2-0.8,4.4,0.4,6.4c1.2,2.1,3.2,3.5,5.3,3.8
		c0.3,0,0.5,0.1,0.8,0.1c2.2,0,5.5-1.2,7.4-7.6c0.4-1.4,0.3-2.6,0.2-3.7c0.2,0,0.3,0.1,0.5,0.1c2,0.4,4.1,0.8,6.3,0.7
		c4.6-0.1,9-2.5,11.9-6.1l1.6,9.4c0.2,1,1.1,1.6,2,1.5c1-0.1,1.6-1,1.5-2c-0.4-3.6,0.2-7.3,1.7-10.7c0.3-0.7,0.5-0.9,0.6-1
		c0.2,0.1,0.6,0.6,0.9,1.5c1.3,3.4,2.1,7,2.3,10.6c0.1,0.9,0.8,1.7,1.8,1.7l0,0c1,0,1.7-0.8,1.7-1.7c0.1-5.1,1.2-10.2,3-15
		c0.1-0.1,0.2-0.5,0.3-0.7c0.1,0,0.4,0.1,0.6,0.3c0.4,0.5,0.7,1.4,0.9,2.2l3.7,15.9c0.1,0.6,0.6,1.1,1.1,1.3
		c0.6,0.2,1.2,0.1,1.7-0.2c3.5-2.5,6.2-6,7.9-9.9l0.3,1c0.2,0.8,0.6,1.9,1.6,2.7c1.4,1.1,3.3,1,5.4-0.1c0.6-0.3,1.1-0.7,1.7-1
		c0.8,1.9,1.8,3.8,3,5.5c0.9,1.4,2,2.9,3.8,3.6c1.7,0.6,3.6,0.5,5.7-0.4c4-1.7,7.3-5.2,9.5-9.8c3,2.2,7.3,2.6,11.2,1
		c3.2-1.3,6-3.8,8.6-7.5c2.2-3.1,3.9-6.6,5.1-10.2c1.4,2.5,2.9,4.9,4.6,7.1c0.2,0.3,0.4,0.6,0.7,0.9c1,1.3,1.9,2.5,2.6,3.8
		c0.2,0.4,0.3,0.7,0.4,1c-1.9-0.8-4-1.1-5.8,0.4c-1.1,1-1.6,2.5-1.3,4.1c0.4,1.8,1.6,3.2,3.2,3.7c2.4,0.8,5.2-0.4,6.6-2.7
		c1.7,0.8,3.9,1.4,6.3,1c3.2-0.5,5.7-2.9,6.1-5.8C301.1,491.9,300.5,491,299.5,490.8z M165.9,499.2c-0.7,2.5-2.1,5.4-4.4,5.1
		c-1.1-0.1-2.1-0.9-2.7-2c-0.6-1.1-0.7-2.3-0.3-3.2c1-2.1,3.8-3,6.5-3c0.2,0,0.5,0,0.7,0c0,0.1,0,0.2,0,0.2
		C166.1,497.4,166.2,498.2,165.9,499.2z M233.7,467.7c0.4-1,0.9-2,1.7-2.6c0.3-0.2,0.7-0.3,1-0.3c0.2,0,0.4,0.1,0.5,0.1
		c0.4,0.3,0.4,1.4,0.5,1.8c0.3,5.2-0.2,10.5-1.6,15.6c-0.9,3.3-2.1,6.1-3.7,8.2C230.1,483,230.6,474.9,233.7,467.7z M254,482.2
		c-0.3,2.3-1.1,4.3-2,6.3c-0.4-2-0.4-4.2-0.4-6.3c0-1.1,0.8-2.5,1.5-2.9c0.1-0.1,0.2-0.1,0.2-0.1h0.1
		C253.9,479.7,254.1,481.5,254,482.2z M283.1,496.9c-0.4-0.1-0.7-0.5-0.8-1c0-0.1-0.1-0.5,0.1-0.7c0.2-0.1,0.4-0.2,0.7-0.2
		c0.7,0,1.6,0.4,2.5,0.9C284.9,496.7,283.9,497.2,283.1,496.9z"/>
	<path id="XMLID_50_" class="st0" d="M190.8,460.7c0.6,0,2.5-1.5,1.7-1.5c-2.3,0-4.7,0.3-7-0.2c-0.6-0.1-2.1,0.5-2.1,1.2
		c0.1,4.4,0,8.7,0,13.1c0,0.6,2.3-0.3,2.3-1c0-1.9,0-3.8,0-5.7l0,0c1.2,0,2.4,0,3.6,0c0.5,0,0.5-0.3,0.2-0.6
		c-0.4-0.4-1.1-0.6-1.7-0.6c-0.7,0-1.4,0-2.1,0c0-1.6,0-3.1,0-4.7C187.3,460.9,189.1,460.7,190.8,460.7z"/>
	<path id="XMLID_51_" class="st0" d="M194,459.8c0,4.3,0,8.6,0,12.9c0,0.5,2.5,0.6,2.5,0.3c0-4.3,0-8.6,0-12.9
		C196.6,459.7,194,459.5,194,459.8z"/>
	<path id="XMLID_52_" class="st0" d="M212.8,461.5c1.4-0.2,3,0,4.3,0.1c1.5,0,1.2-2.4-0.1-2.4c-1.9,0-5.9-1.1-6.3,1.5
		c-0.5,3.8-0.2,7.9-0.3,11.7c0,0.8,0.7,1.4,1.5,1.3c1.6-0.2,3.2-0.2,4.8-0.1c1.5,0.1,1.2-2.3-0.1-2.4s-2.6-0.1-3.9,0
		c0-1.2,0.1-2.4,0.1-3.6c1.2,0,2.4,0,3.6,0c1.2,0,2.2-1.8,0.6-1.8c-1.4,0-2.8,0-4.1,0C212.7,464.4,212.6,462.8,212.8,461.5z"/>
	<path id="XMLID_53_" class="st0" d="M206.4,460c-0.9,3-1.8,5.9-2.7,8.9c-1-2.9-2-5.8-3.1-8.6c-0.4-1.1-2.9-1-2.5,0.2
		c1.5,4.2,3,8.3,4.4,12.5c0.3,0.8,2.1,1.3,2.4,0.3c1.3-4.2,2.5-8.3,3.8-12.5C209.2,459.5,206.8,458.9,206.4,460z"/>
</g>
</svg>
